M48
;Layer_Color=6321
;FILE_FORMAT=2:5
INCH,LZ
;TYPE=PLATED
T1F00S00C0.01181
T2F00S00C0.01575
T4F00S00C0.03543
;TYPE=NON_PLATED
T5F00S00C0.01969
%
T01
X0311417Y-0162205
Y-0159449
X0317323Y-0159449
Y-0162205
X0323228
Y-0159449
X0329134Y-0159449
Y-0162205
X0334252Y-0145669
X0317323
X0244094Y-013189
X0207874Y-0145669
X0125591Y-0159449
Y-0162205
X0119685Y-0162205
Y-0159449
X0113779Y-0159449
Y-0162205
X0108268Y-0139764
X0073228Y-0145669
X0076181Y-0153543
X0069291Y-0134646
X0067488Y-01313
X003937Y-0151575
X0065865Y-01286
X0069156Y-0126623
X0070778Y-0129323
X0073731Y-0127549
X0072109Y-0124849
X0074893Y-0123176
X0076515Y-0125876
X0067993Y-0105258
X0066371Y-0102558
X0063081Y-0104535
X0064703Y-0107235
X006175Y-0109009
X0060128Y-0106309
X0057344Y-0107982
X0058966Y-0110682
X0064567Y-0086614
X0074803
X0088583Y-0085433
X0102362Y-0076772
X0111024Y-0068898
Y-0061024
X0109449Y-0040157
X0086221Y-0041339
X0088583Y-0061024
X0044094Y-0054724
X0044488Y-0082284
X0020079Y-0082677
X0025591Y-0009843
X0037402Y-0007874
X0041339Y-0003937
X0062992Y-0005898
Y-000826
X0066142
Y-0005898
X0070473
Y-0008654
X0076378
Y-0005898
X0080709
Y-000826
X0083858
Y-0005898
X0083858Y0005913
Y0008275
X0080709
Y0005913
X0076378Y0005913
Y0008669
X0076378Y0012598
X0070473Y0008669
Y0005913
X0066142Y0005913
Y0008275
X0062992
Y0005913
X0060694Y0012535
X0064961Y-0021654
X0070866
X005315Y-0023622
X0094095Y-001378
X0105118Y0001181
X0110236Y0003937
X0112205Y0
X013189Y0005906
Y0008268
X0135039
X0139764
Y-0005906
X0135039
X013189
Y-0008268
X0137795Y-0052756
X0116142Y-0102362
X0143701Y-0096457
X0147638Y-0044882
X0175197Y-0041339
X019285Y-0060119
X0194717Y-0065157
X0196339Y-0067856
X0193049Y-0069833
X0191427Y-0067134
X0188474Y-0068908
X0190096Y-0071608
X0187312Y-0073281
X018569Y-0070581
X0200511Y-0087655
X0202133Y-0090355
X0205423Y-0088378
X0203801Y-0085678
X0206754Y-0083904
X0208376Y-0086604
X021116Y-0084931
X0209538Y-0082231
X0210574Y-0090261
X0203937Y-0098425
X025Y-0062992
X0286614Y-003937
X0281496Y-0008235
Y-0005873
X0278347
Y-0008235
X0274016Y-0008243
Y-0005882
X0269685Y-0005882
Y-0008243
X0266536
Y-0005881
Y0005931
Y0008293
X0269685Y0008291
X0269685Y0005931
X0274016
Y0008291
X0278347Y00083
Y0005938
X0281496
Y00083
X0297244Y0
X018904Y-0011811
X018904Y0012535
X0142913Y0008268
Y0005906
Y-0005906
Y-0008268
X0309843Y-0008275
Y-0005913
X0312992
Y-0008275
X0317323Y-0008276
Y-0005913
X0323229
Y-0008276
X0327559Y-0008275
Y-0005913
X0330709
Y-0008275
X032093Y-0011875
X0316929Y-0017717
X031758Y-0031211
X0319202Y-003391
X0321986Y-0032238
X0320364Y-0029538
X0323317Y-0027764
X0324939Y-0030463
X0328229Y-0028486
X0326607Y-0025787
X0326889Y-0051435
X0328511Y-0054135
X0331801Y-0052158
X0330179Y-0049458
X0333132Y-0047684
X0334754Y-0050383
X0337538Y-0048711
X0335916Y-0046011
X0336951Y-005404
X0375984Y-0041339
X0366142Y0001969
X0330709Y0005898
Y000826
X0327559
Y0005898
X0323229Y0005898
Y000826
X0317323Y000826
Y0005898
X0312992Y0005898
Y000826
X0309843
Y0005898
X032093Y0012535
X0324803Y0017717
X0385827Y0021654
X0362205Y-0122047
X0326607Y0025787
X0328229Y0028486
X0324939Y0030463
X0323317Y0027764
X0320364Y0029538
X0321986Y0032237
X0319202Y003391
X031758Y0031211
X0318167Y0025881
X0326889Y0051435
X0328511Y0054135
X0331801Y0052158
X0330179Y0049458
X0333132Y0047684
X0334754Y0050383
X0337538Y0048711
X0335916Y0046011
X0330815Y0057968
X0334254Y0144882
X0364173Y011811
X0261811Y0158268
X0258661
X0253937
X0250787
Y0162992
X0253937
X0258661
X0261811
X0207876Y0144882
X0218504Y0129921
X021063Y0090551
X021116Y0084931
X0209538Y0082231
X0206754Y0083904
X0208376Y0086604
X0205423Y0088378
X0203801Y0085678
X0200511Y0087655
X0202133Y0090355
X020433Y0094012
X0196339Y0067856
X0194717Y0065157
X0191427Y0067134
X0193049Y0069833
X0190096Y0071608
X0188474Y0068908
X018569Y0070581
X0187312Y0073281
X0186277Y0065251
X0192913Y0057087
X025Y0061024
X0277559Y0057087
X0143701Y0096457
X0116142Y0100787
X0066371Y0102558
X0067993Y0105258
X0064703Y0107235
X0063081Y0104535
X0060128Y0106309
X006175Y0109009
X0058966Y0110682
X0057344Y0107982
X005793Y0102653
X0064567Y0094488
X0065865Y01286
X0067488Y01313
X0070778Y0129323
X0069156Y0126623
X0072109Y0124849
X0073731Y0127549
X0076515Y0125876
X0074893Y0123176
X0075984Y0131496
X007874Y0144882
Y0151575
X0070473Y0151575
X0070473Y0159843
Y0162599
X0076378
Y0159843
X0082284Y0159843
Y0162599
X0064567
Y0159843
X0035433Y0151575
X0005906Y0137795
X0025591Y0072835
X003937Y007874
X001378Y0059055
X0114173Y0041339
T02
X0031496Y0104331
T04
X0120551Y-0018504
X0130551
X0140551
X0150551
X0160551
T05
X0060265Y-0125556
X0063633Y-0123517
X0067Y-0121478
X0070368Y-0119438
X0073735Y-0117399
X0069656Y-0110663
X0066289Y-0112703
X0062921Y-0114742
X0059554Y-0116782
X0056186Y-0118821
X0324044Y-0046816
X0327412Y-0044777
X033078Y-0042737
X0334147Y-0040698
X0337515Y-0038658
X0333436Y-0031923
X0330068Y-0033963
X0326701Y-0036002
X0323333Y-0038042
X0319966Y-0040081
Y0040082
X0323333Y0038042
X0326701Y0036003
X0330068Y0033963
X0333436Y0031924
X0334147Y0040698
X0337515Y0038659
X033078Y0042738
X0327412Y0044777
X0324044Y0046817
X0069656Y0110664
X0066289Y0112703
X0062921Y0114743
X0059554Y0116782
X0056186Y0118822
X0060265Y0125557
X0063633Y0123518
X0067Y0121478
X0070368Y0119439
X0073735Y0117399
M30
