G04*
G04 #@! TF.GenerationSoftware,Altium Limited,Altium Designer,20.0.2 (26)*
G04*
G04 Layer_Color=15132400*
%FSLAX25Y25*%
%MOIN*%
G70*
G01*
G75*
%ADD10C,0.00787*%
%ADD11C,0.00984*%
%ADD12C,0.00394*%
%ADD13C,0.01000*%
%ADD14C,0.00472*%
G36*
X188419Y127362D02*
X196364Y121590D01*
X186543D01*
X183509Y112249D01*
X180474Y121590D01*
X170653D01*
X178598Y127362D01*
X175563Y136703D01*
X183509Y130930D01*
X191454Y136703D01*
X188419Y127362D01*
D02*
G37*
G36*
X241566Y124360D02*
X245539Y121474D01*
X240628D01*
X239111Y116804D01*
X237593Y121474D01*
X232683D01*
X236656Y124360D01*
X235138Y129030D01*
X239111Y126144D01*
X243084Y129030D01*
X241566Y124360D01*
D02*
G37*
G36*
X314952Y119494D02*
X314952Y119494D01*
X315007Y119420D01*
X315096Y119259D01*
X315163Y119088D01*
X315207Y118909D01*
X315217Y118817D01*
Y118817D01*
X315217D01*
X325886Y113517D01*
X314681Y117563D01*
X314605Y117504D01*
X314439Y117410D01*
X314262Y117339D01*
X314077Y117293D01*
X313982Y117282D01*
Y117282D01*
X313982Y117282D01*
X313982D01*
X308649Y106535D01*
X312727Y117818D01*
X312669Y117894D01*
X312575Y118060D01*
X312504Y118237D01*
X312458Y118422D01*
X312447Y118517D01*
X312447D01*
X301778Y123817D01*
X312983Y119771D01*
X313059Y119829D01*
X313225Y119924D01*
X313402Y119995D01*
X313587Y120041D01*
X313682Y120052D01*
X313682Y120052D01*
X318949Y130643D01*
X314952Y119494D01*
D02*
G37*
G36*
X63411Y155631D02*
X75807D01*
X77092Y154645D01*
X78524Y153891D01*
X80063Y153390D01*
X81665Y153156D01*
X83284Y153197D01*
X84872Y153512D01*
X85640Y153769D01*
X86560Y153981D01*
X88442Y154135D01*
X90327Y154014D01*
X92174Y153621D01*
X93944Y152965D01*
X95601Y152059D01*
X97109Y150923D01*
X98437Y149579D01*
X99556Y148058D01*
X100442Y146391D01*
X101078Y144613D01*
X101449Y142761D01*
X101498Y141818D01*
X101498Y141818D01*
X101563Y140614D01*
X101878Y138223D01*
X102435Y135876D01*
X103230Y133600D01*
X104254Y131416D01*
X105496Y129349D01*
X106943Y127420D01*
X108580Y125649D01*
X110390Y124055D01*
X112353Y122654D01*
X114449Y121462D01*
X116657Y120491D01*
X117795Y120091D01*
X118713Y119340D01*
X120376Y117647D01*
X121846Y115783D01*
X123104Y113771D01*
X124136Y111634D01*
X124930Y109398D01*
X125180Y108345D01*
Y87667D01*
X124744Y87422D01*
X78245Y115603D01*
X78059Y115716D01*
X82625Y128272D01*
X76103Y136328D01*
X74660Y137411D01*
X63185Y138175D01*
X56483Y128792D01*
X11269Y156195D01*
X11404Y156676D01*
X55700D01*
X55778Y156692D01*
X55857D01*
X56200Y156760D01*
X63411Y155631D01*
D02*
G37*
G36*
X51676Y120617D02*
X52125Y120345D01*
X52224Y120309D01*
X52318Y120261D01*
X53325Y119971D01*
X53431Y119962D01*
X53535Y119939D01*
X54167Y119929D01*
X54583Y119677D01*
X51991Y108710D01*
X55474Y101743D01*
X55750Y101279D01*
X56418Y100432D01*
X57223Y99714D01*
X58141Y99147D01*
X59143Y98748D01*
X60199Y98528D01*
X61278Y98496D01*
X62345Y98651D01*
X62865Y98798D01*
X62865Y98798D01*
X63251Y98937D01*
X64060Y99072D01*
X64881Y99062D01*
X65687Y98906D01*
X66452Y98610D01*
X67152Y98182D01*
X67766Y97637D01*
X68272Y96991D01*
X68464Y96628D01*
X68638Y96233D01*
X68862Y95400D01*
X68957Y94542D01*
X68921Y93680D01*
X68754Y92833D01*
X68460Y92021D01*
X68047Y91264D01*
X67523Y90578D01*
X67212Y90278D01*
X66745Y89757D01*
X65671Y88860D01*
X64479Y88127D01*
X63194Y87574D01*
X61843Y87211D01*
X60453Y87046D01*
X59054Y87082D01*
X57675Y87320D01*
X56345Y87754D01*
X55091Y88375D01*
X53939Y89169D01*
X52913Y90122D01*
X52475Y90667D01*
X51617Y91372D01*
X50046Y92945D01*
X48637Y94663D01*
X47402Y96510D01*
X46877Y97489D01*
X46749Y97859D01*
X46357Y98536D01*
X45807Y99092D01*
X45134Y99492D01*
X44765Y99624D01*
Y99624D01*
X43623Y99957D01*
X41396Y100794D01*
X39239Y101799D01*
X37165Y102966D01*
X35187Y104288D01*
X33315Y105757D01*
X31561Y107365D01*
X29934Y109101D01*
X29190Y110029D01*
X27905Y110069D01*
X25373Y110504D01*
X22927Y111289D01*
X20614Y112407D01*
X18479Y113837D01*
X16565Y115552D01*
X14909Y117516D01*
X13543Y119692D01*
X13019Y120865D01*
X12351Y120755D01*
X10998Y120747D01*
X9660Y120951D01*
X8371Y121362D01*
X7162Y121970D01*
X6063Y122760D01*
X5101Y123712D01*
X4300Y124802D01*
X3680Y126005D01*
X3255Y127290D01*
X3038Y128626D01*
X3032Y129979D01*
X3134Y130648D01*
X2725Y131485D01*
X2015Y133207D01*
X1416Y134972D01*
X929Y136770D01*
X803Y137392D01*
Y150941D01*
X1238Y151186D01*
X51676Y120617D01*
D02*
G37*
G36*
X182517Y81671D02*
X177575Y71596D01*
X177693Y70890D01*
X177699Y69460D01*
X177473Y68047D01*
X177021Y66690D01*
X176355Y65424D01*
X175493Y64283D01*
X174457Y63297D01*
X173275Y62491D01*
X171978Y61888D01*
X170600Y61503D01*
X169178Y61347D01*
X167750Y61422D01*
X166352Y61729D01*
X165024Y62258D01*
X163798Y62995D01*
X162708Y63921D01*
X162245Y64467D01*
X162245D01*
X161817Y65875D01*
X160735Y68611D01*
X159362Y71214D01*
X157714Y73651D01*
X155810Y75895D01*
X153673Y77918D01*
X151328Y79696D01*
X148804Y81209D01*
X147484Y81859D01*
X146449Y82333D01*
X144312Y83118D01*
X142106Y83679D01*
X139854Y84008D01*
X138718Y84085D01*
X138156Y84546D01*
X137143Y85590D01*
X136255Y86743D01*
X135505Y87989D01*
X134900Y89312D01*
X134662Y90044D01*
Y109317D01*
X135096Y109565D01*
X182517Y81671D01*
D02*
G37*
G36*
X225032Y97589D02*
X226440Y97103D01*
X227734Y96366D01*
X228870Y95402D01*
X229339Y94824D01*
X229339D01*
X230350Y94207D01*
X232311Y92876D01*
X234206Y91453D01*
X236029Y89939D01*
X237778Y88340D01*
X239448Y86658D01*
X241034Y84898D01*
X242534Y83063D01*
X243239Y82111D01*
X244127Y80994D01*
X246118Y78952D01*
X248364Y77196D01*
X250826Y75757D01*
X252124Y75164D01*
X252973Y74791D01*
X254544Y73802D01*
X255952Y72595D01*
X257169Y71194D01*
X258168Y69630D01*
X258926Y67936D01*
X259039Y67537D01*
Y48163D01*
X258605Y47915D01*
X211183Y75810D01*
X216125Y85885D01*
X216125D01*
X215763Y86536D01*
X215292Y87948D01*
X215089Y89423D01*
X215162Y90911D01*
X215507Y92359D01*
X216114Y93719D01*
X216961Y94944D01*
X218020Y95991D01*
X219253Y96826D01*
X220619Y97419D01*
X222071Y97749D01*
X223559Y97807D01*
X225032Y97589D01*
D02*
G37*
G36*
X131111Y38802D02*
X139057Y33030D01*
X129235D01*
X126200Y23689D01*
X123166Y33030D01*
X113345D01*
X121290Y38802D01*
X118255Y48143D01*
X126200Y42370D01*
X134146Y48143D01*
X131111Y38802D01*
D02*
G37*
G36*
X334647Y70398D02*
X336026Y70160D01*
X337356Y69726D01*
X338610Y69106D01*
X339762Y68311D01*
X340788Y67359D01*
X341226Y66814D01*
X342084Y66108D01*
X343655Y64536D01*
X345064Y62818D01*
X346299Y60971D01*
X346824Y59991D01*
X346824D01*
X346824Y59991D01*
X346952Y59621D01*
X346988Y59559D01*
X347344Y58944D01*
X347895Y58388D01*
X348567Y57989D01*
X348936Y57857D01*
X350078Y57524D01*
X352305Y56686D01*
X354462Y55681D01*
X356536Y54514D01*
X358514Y53192D01*
X360386Y51723D01*
X362140Y50116D01*
X363767Y48379D01*
X364511Y47451D01*
X364511D01*
X365054Y46251D01*
X366384Y43979D01*
X368018Y41916D01*
X369925Y40102D01*
X372067Y38571D01*
X374402Y37356D01*
X376884Y36478D01*
X379464Y35957D01*
X380775Y35833D01*
X381392Y35937D01*
X382645Y35947D01*
X383882Y35756D01*
X385074Y35370D01*
X386189Y34800D01*
X387198Y34059D01*
X388077Y33166D01*
X388802Y32144D01*
X389354Y31021D01*
X389721Y29823D01*
X389891Y28582D01*
X389862Y27330D01*
X389747Y26714D01*
X390218Y25864D01*
X391047Y24105D01*
X391761Y22296D01*
X392357Y20445D01*
X392832Y18559D01*
X392898Y18199D01*
Y6696D01*
X392459Y6456D01*
X390587Y7660D01*
X390577Y7664D01*
X390568Y7671D01*
X343416Y36206D01*
X343332Y36237D01*
X343254Y36281D01*
X340254Y37281D01*
X340158Y37293D01*
X339320Y37801D01*
X341712Y48767D01*
X338265Y55661D01*
X338055Y56197D01*
X337467Y57184D01*
X336680Y58021D01*
X335730Y58667D01*
X334662Y59092D01*
X333528Y59276D01*
X332381Y59211D01*
X331275Y58898D01*
X330754Y58654D01*
X330754Y58654D01*
X330371Y58524D01*
X329570Y58404D01*
X328760Y58425D01*
X327967Y58588D01*
X327215Y58888D01*
X326527Y59315D01*
X325924Y59856D01*
X325426Y60494D01*
X325237Y60852D01*
X325063Y61247D01*
X324838Y62080D01*
X324744Y62938D01*
X324780Y63801D01*
X324947Y64648D01*
X325241Y65459D01*
X325654Y66217D01*
X326178Y66903D01*
X326489Y67202D01*
X326956Y67723D01*
X328030Y68620D01*
X329222Y69353D01*
X330507Y69907D01*
X331858Y70270D01*
X333248Y70435D01*
X334647Y70398D01*
D02*
G37*
G36*
X315456Y41877D02*
X315456Y41877D01*
X315903Y41605D01*
X315977Y41579D01*
X316103Y41509D01*
X316299Y41081D01*
X311302Y30160D01*
X317224Y21755D01*
X320834Y19665D01*
X330178Y17758D01*
X338137Y27991D01*
X384038Y267D01*
X384039Y-233D01*
X337083Y-28794D01*
X337055Y-28819D01*
X337022Y-28835D01*
X336941Y-28925D01*
X336852Y-29006D01*
X336837Y-29040D01*
X336812Y-29067D01*
X336528Y-29540D01*
X335550Y-30126D01*
X317724Y-40868D01*
X317698Y-40993D01*
X317363Y-41198D01*
X317314Y-41199D01*
X317210Y-41221D01*
X317104Y-41230D01*
X316097Y-41520D01*
X316003Y-41569D01*
X315903Y-41605D01*
X315456Y-41877D01*
X268957Y-70059D01*
X268521Y-69813D01*
Y-48640D01*
X269223Y-46405D01*
X270563Y-43414D01*
X272244Y-40600D01*
X274243Y-38002D01*
X276532Y-35655D01*
X279080Y-33593D01*
X281851Y-31842D01*
X283330Y-31135D01*
Y-31135D01*
X283330Y-31135D01*
X284086Y-30739D01*
X285505Y-29793D01*
X286777Y-28657D01*
X287879Y-27355D01*
X288787Y-25912D01*
X289484Y-24355D01*
X289957Y-22716D01*
X290195Y-21028D01*
X290226Y-20175D01*
X290213Y-19620D01*
X290112Y-18515D01*
X289910Y-17424D01*
X289610Y-16356D01*
X289214Y-15319D01*
X288725Y-14323D01*
X288147Y-13376D01*
X287485Y-12486D01*
X287124Y-12064D01*
X286664Y-11548D01*
X285841Y-10438D01*
X285123Y-9257D01*
X284516Y-8016D01*
X284023Y-6725D01*
X283650Y-5394D01*
X283400Y-4035D01*
X283385Y-3870D01*
X284101Y-3678D01*
X284195Y-3631D01*
X284295Y-3598D01*
X285013Y-3183D01*
X285092Y-3114D01*
X285179Y-3055D01*
X285765Y-2469D01*
X285824Y-2382D01*
X285893Y-2303D01*
X286308Y-1585D01*
X286341Y-1485D01*
X286388Y-1391D01*
X286602Y-590D01*
X286609Y-485D01*
X286630Y-382D01*
Y447D01*
X286609Y550D01*
X286602Y655D01*
X286388Y1456D01*
X286341Y1550D01*
X286308Y1650D01*
X285893Y2368D01*
X285824Y2447D01*
X285765Y2534D01*
X285179Y3121D01*
X285092Y3179D01*
X285013Y3248D01*
X284345Y3634D01*
X284518Y4087D01*
X285127Y5329D01*
X285847Y6510D01*
X286671Y7621D01*
X287132Y8137D01*
X287585Y8668D01*
X288416Y9788D01*
X289142Y10980D01*
X289756Y12232D01*
X290254Y13536D01*
X290631Y14879D01*
X290884Y16251D01*
X291011Y17641D01*
X291027Y18338D01*
X291026Y18503D01*
X291019Y18831D01*
X291005Y19160D01*
X290984Y19488D01*
X290970Y19652D01*
X290865Y20546D01*
X290487Y22307D01*
X289892Y24006D01*
X289088Y25618D01*
X288089Y27116D01*
X286911Y28477D01*
X285571Y29680D01*
X284091Y30707D01*
X283306Y31148D01*
X282154Y31749D01*
X279968Y33155D01*
X277919Y34753D01*
X276023Y36531D01*
X274296Y38473D01*
X272753Y40564D01*
X271406Y42786D01*
X270265Y45121D01*
X269342Y47550D01*
X268642Y50054D01*
X268521Y50711D01*
Y69813D01*
X268957Y70058D01*
X315456Y41877D01*
D02*
G37*
G36*
X392898Y-6589D02*
Y-24587D01*
X392712Y-25191D01*
X391863Y-26978D01*
X390767Y-28624D01*
X389446Y-30097D01*
X387927Y-31365D01*
X386242Y-32401D01*
X384426Y-33186D01*
X382517Y-33702D01*
X380553Y-33939D01*
X378575Y-33892D01*
X377600Y-33726D01*
X376721Y-33600D01*
X374947Y-33581D01*
X373198Y-33872D01*
X371525Y-34463D01*
X369982Y-35337D01*
X368615Y-36467D01*
X367466Y-37819D01*
X366571Y-39350D01*
X366227Y-40168D01*
X366069Y-40595D01*
X365643Y-41399D01*
X365114Y-42140D01*
X364491Y-42804D01*
X364139Y-43092D01*
X364139Y-43092D01*
X363581Y-43486D01*
X362346Y-44068D01*
X361029Y-44426D01*
X359670Y-44551D01*
X358310Y-44437D01*
X356990Y-44089D01*
X355750Y-43518D01*
X354629Y-42739D01*
X354144Y-42259D01*
X353667Y-41706D01*
X352882Y-40473D01*
X352285Y-39140D01*
X351887Y-37735D01*
X351696Y-36286D01*
X351718Y-34826D01*
X351952Y-33383D01*
X352392Y-31990D01*
X353030Y-30676D01*
X353538Y-29928D01*
X392463Y-6343D01*
X392898Y-6589D01*
D02*
G37*
G36*
X168389Y-51181D02*
X173300D01*
X169327Y-54067D01*
X170844Y-58738D01*
X166872Y-55851D01*
X162899Y-58738D01*
X164417Y-54067D01*
X160444Y-51181D01*
X165354D01*
X166872Y-46511D01*
X168389Y-51181D01*
D02*
G37*
G36*
X202105Y-46278D02*
X204668Y-46832D01*
X207156Y-47658D01*
X209541Y-48747D01*
X211795Y-50086D01*
X213483Y-51354D01*
X214604Y-52496D01*
X215542Y-53793D01*
X216274Y-55216D01*
X216784Y-56733D01*
X217061Y-58310D01*
X217098Y-59910D01*
X216902Y-61445D01*
X135096Y-109565D01*
X134662Y-109317D01*
Y-85861D01*
X134768Y-85436D01*
X135526Y-83501D01*
X136531Y-81683D01*
X137764Y-80011D01*
X139205Y-78514D01*
X140829Y-77219D01*
X142609Y-76146D01*
X144513Y-75315D01*
X146509Y-74739D01*
X148563Y-74430D01*
X149602Y-74410D01*
X150615Y-74394D01*
X152637Y-74271D01*
X154647Y-74023D01*
X156639Y-73653D01*
X158604Y-73162D01*
X160535Y-72552D01*
X162425Y-71824D01*
X164268Y-70982D01*
X165169Y-70519D01*
X165950Y-70559D01*
X167509Y-70468D01*
X169040Y-70152D01*
X170508Y-69618D01*
X171883Y-68876D01*
X173137Y-67943D01*
X174242Y-66838D01*
X175175Y-65585D01*
X175916Y-64209D01*
X176451Y-62741D01*
X176767Y-61211D01*
X176858Y-59651D01*
X176818Y-58870D01*
X177435Y-57714D01*
X178910Y-55546D01*
X180610Y-53551D01*
X182515Y-51749D01*
X184603Y-50163D01*
X186849Y-48811D01*
X189228Y-47709D01*
X191711Y-46869D01*
X194271Y-46301D01*
X196876Y-46011D01*
X199498Y-46004D01*
X202105Y-46278D01*
D02*
G37*
G36*
X259039Y-48164D02*
Y-71685D01*
X258906Y-72207D01*
X258140Y-74124D01*
X257131Y-75925D01*
X255895Y-77578D01*
X254453Y-79056D01*
X252832Y-80334D01*
X251057Y-81389D01*
X249160Y-82203D01*
X247172Y-82762D01*
X245129Y-83058D01*
X244097Y-83071D01*
X243084Y-83086D01*
X241063Y-83210D01*
X239052Y-83457D01*
X237061Y-83827D01*
X235096Y-84319D01*
X233165Y-84929D01*
X231274Y-85657D01*
X229432Y-86499D01*
X228531Y-86962D01*
X226862Y-88185D01*
X223692Y-90845D01*
X220766Y-93771D01*
X218106Y-96942D01*
X216882Y-98611D01*
X216266Y-99767D01*
X214790Y-101934D01*
X213091Y-103929D01*
X211186Y-105730D01*
X209099Y-107316D01*
X206854Y-108668D01*
X204475Y-109771D01*
X201993Y-110611D01*
X199434Y-111179D01*
X196829Y-111469D01*
X194208Y-111477D01*
X191601Y-111203D01*
X189039Y-110651D01*
X186551Y-109825D01*
X184166Y-108737D01*
X181912Y-107399D01*
X180864Y-106613D01*
X180234Y-106125D01*
X179135Y-104971D01*
X178221Y-103665D01*
X177515Y-102237D01*
X177030Y-100719D01*
X176779Y-99146D01*
X176767Y-97552D01*
X176995Y-95975D01*
X177014Y-95909D01*
X258605Y-47915D01*
X259039Y-48164D01*
D02*
G37*
G36*
X125180Y-87667D02*
Y-99225D01*
X124989Y-99790D01*
X124054Y-101577D01*
X122851Y-103197D01*
X121411Y-104608D01*
X119767Y-105778D01*
X117962Y-106677D01*
X117000Y-106980D01*
X116296Y-107734D01*
X114711Y-109055D01*
X112975Y-110169D01*
X111114Y-111059D01*
X109156Y-111711D01*
X107133Y-112116D01*
X105076Y-112267D01*
X103016Y-112161D01*
X102000Y-111980D01*
X100666Y-112564D01*
X98122Y-113976D01*
X95773Y-115693D01*
X93656Y-117690D01*
X91805Y-119935D01*
X90247Y-122393D01*
X89008Y-125025D01*
X88107Y-127792D01*
X87788Y-129212D01*
X87451Y-130573D01*
X86451Y-133191D01*
X85141Y-135669D01*
X83539Y-137969D01*
X81669Y-140058D01*
X79560Y-141903D01*
X77242Y-143479D01*
X74749Y-144761D01*
X72119Y-145730D01*
X69391Y-146373D01*
X66605Y-146679D01*
X63802Y-146644D01*
X62413Y-146457D01*
X61642Y-146408D01*
X60099Y-146472D01*
X58579Y-146747D01*
X57111Y-147229D01*
X55724Y-147909D01*
X54444Y-148773D01*
X53295Y-149805D01*
X52299Y-150986D01*
X51476Y-152293D01*
X50840Y-153700D01*
X50404Y-155182D01*
X50181Y-156676D01*
X11404D01*
X11270Y-156194D01*
X56591Y-128727D01*
X57026Y-128464D01*
X57102Y-128394D01*
X57186Y-128336D01*
X57893Y-127606D01*
X57949Y-127520D01*
X58016Y-127442D01*
X58347Y-126853D01*
X63043Y-123933D01*
X75692Y-116293D01*
X76406Y-116278D01*
X76509Y-116255D01*
X76613Y-116246D01*
X77609Y-115956D01*
X77702Y-115908D01*
X77801Y-115872D01*
X78244Y-115603D01*
X124744Y-87422D01*
X125180Y-87667D01*
D02*
G37*
G36*
X240628Y-121474D02*
X245539D01*
X241566Y-124360D01*
X243084Y-129030D01*
X239111Y-126144D01*
X235138Y-129030D01*
X236656Y-124360D01*
X232683Y-121474D01*
X237593D01*
X239111Y-116804D01*
X240628Y-121474D01*
D02*
G37*
G36*
X313982Y-117282D02*
X314077Y-117293D01*
X314262Y-117339D01*
X314439Y-117410D01*
X314605Y-117504D01*
X314681Y-117563D01*
X314681Y-117563D01*
X325886Y-113517D01*
X315217Y-118817D01*
X315207Y-118909D01*
X315163Y-119088D01*
X315096Y-119259D01*
X315007Y-119420D01*
X314952Y-119494D01*
X314952Y-119494D01*
X314952D01*
X318949Y-130643D01*
X313682Y-120052D01*
X313682D01*
X313587Y-120041D01*
X313402Y-119995D01*
X313225Y-119924D01*
X313059Y-119829D01*
X312983Y-119771D01*
X312983Y-119771D01*
X301778Y-123817D01*
X312447Y-118517D01*
X312458Y-118422D01*
X312504Y-118237D01*
X312575Y-118060D01*
X312669Y-117894D01*
X312727Y-117818D01*
Y-117818D01*
X312727D01*
X308649Y-106535D01*
X313982Y-117282D01*
D02*
G37*
G36*
X186543Y-121590D02*
X196364D01*
X188419Y-127362D01*
X191454Y-136703D01*
X183509Y-130930D01*
X175563Y-136703D01*
X178598Y-127362D01*
X170653Y-121590D01*
X180474D01*
X183509Y-112249D01*
X186543Y-121590D01*
D02*
G37*
G36*
X165748Y-23366D02*
Y-28602D01*
X115354D01*
Y-23366D01*
X165748D01*
D02*
G37*
%LPC*%
G36*
X85232Y148035D02*
X78443D01*
X77642Y147820D01*
X76924Y147405D01*
X76337Y146818D01*
X75922Y146100D01*
X75707Y145298D01*
Y144468D01*
X75922Y143667D01*
X76337Y142949D01*
X76924Y142362D01*
X77642Y141947D01*
X78443Y141732D01*
X85232D01*
X85840Y141853D01*
X86414Y142091D01*
X86930Y142436D01*
X87369Y142875D01*
X87714Y143391D01*
X87951Y143964D01*
X88072Y144573D01*
Y145194D01*
X87951Y145802D01*
X87714Y146376D01*
X87369Y146892D01*
X86930Y147331D01*
X86414Y147676D01*
X85840Y147913D01*
X85232Y148035D01*
D02*
G37*
G36*
X288652Y48901D02*
X284680Y46015D01*
X280707Y48901D01*
X282224Y44231D01*
X278252Y41345D01*
X283162D01*
X284680Y36674D01*
X286197Y41345D01*
X291108D01*
X287135Y44231D01*
X288652Y48901D01*
D02*
G37*
G36*
X332305Y3945D02*
X308247D01*
X308144Y3924D01*
X308039Y3917D01*
X307238Y3703D01*
X307144Y3656D01*
X307045Y3622D01*
X306326Y3208D01*
X306247Y3139D01*
X306160Y3080D01*
X305574Y2494D01*
X305515Y2406D01*
X305446Y2327D01*
X305031Y1609D01*
X304998Y1510D01*
X304951Y1416D01*
X304737Y615D01*
X304730Y510D01*
X304709Y407D01*
Y-422D01*
X304730Y-526D01*
X304737Y-630D01*
X304951Y-1431D01*
X304998Y-1526D01*
X305031Y-1625D01*
X305446Y-2343D01*
X305515Y-2422D01*
X305574Y-2509D01*
X306160Y-3096D01*
X306247Y-3154D01*
X306326Y-3223D01*
X307045Y-3638D01*
X307144Y-3672D01*
X307238Y-3718D01*
X308039Y-3933D01*
X308144Y-3940D01*
X308247Y-3960D01*
X332305D01*
X332408Y-3940D01*
X332512Y-3933D01*
X333313Y-3718D01*
X333408Y-3672D01*
X333507Y-3638D01*
X334225Y-3223D01*
X334304Y-3154D01*
X334392Y-3096D01*
X334978Y-2509D01*
X335036Y-2422D01*
X335105Y-2343D01*
X335520Y-1625D01*
X335554Y-1526D01*
X335600Y-1431D01*
X335815Y-630D01*
X335822Y-526D01*
X335842Y-422D01*
Y407D01*
X335822Y510D01*
X335815Y615D01*
X335600Y1416D01*
X335554Y1510D01*
X335520Y1609D01*
X335105Y2327D01*
X335036Y2406D01*
X334978Y2494D01*
X334392Y3080D01*
X334304Y3139D01*
X334225Y3208D01*
X333507Y3622D01*
X333408Y3656D01*
X333313Y3703D01*
X332512Y3917D01*
X332408Y3924D01*
X332305Y3945D01*
D02*
G37*
G36*
X284680Y-36674D02*
X283162Y-41345D01*
X278252D01*
X282224Y-44231D01*
X280707Y-48901D01*
X284680Y-46015D01*
X288652Y-48901D01*
X287135Y-44231D01*
X291108Y-41345D01*
X286197D01*
X284680Y-36674D01*
D02*
G37*
G36*
X140580Y-24420D02*
X140440D01*
X140361Y-24429D01*
X140208Y-24450D01*
X140138Y-24464D01*
X140073Y-24481D01*
X140012Y-24494D01*
X139955Y-24512D01*
X139902Y-24529D01*
X139858Y-24546D01*
X139819Y-24564D01*
X139784Y-24577D01*
X139758Y-24590D01*
X139741Y-24599D01*
X139727Y-24603D01*
X139723Y-24608D01*
X139662Y-24647D01*
X139601Y-24686D01*
X139496Y-24778D01*
X139404Y-24870D01*
X139330Y-24966D01*
X139269Y-25049D01*
X139247Y-25084D01*
X139229Y-25119D01*
X139212Y-25145D01*
X139203Y-25163D01*
X139199Y-25176D01*
X139194Y-25180D01*
X139133Y-25324D01*
X139089Y-25469D01*
X139055Y-25608D01*
X139046Y-25674D01*
X139033Y-25735D01*
X139028Y-25792D01*
X139020Y-25840D01*
X139015Y-25888D01*
Y-25927D01*
X139011Y-25958D01*
Y-26002D01*
X139020Y-26163D01*
X139041Y-26316D01*
X139055Y-26386D01*
X139068Y-26452D01*
X139085Y-26517D01*
X139102Y-26574D01*
X139120Y-26627D01*
X139137Y-26670D01*
X139151Y-26714D01*
X139164Y-26745D01*
X139177Y-26775D01*
X139186Y-26793D01*
X139194Y-26806D01*
Y-26810D01*
X139273Y-26937D01*
X139360Y-27046D01*
X139452Y-27142D01*
X139540Y-27221D01*
X139623Y-27282D01*
X139653Y-27304D01*
X139684Y-27326D01*
X139710Y-27339D01*
X139727Y-27352D01*
X139741Y-27356D01*
X139745Y-27361D01*
X139815Y-27396D01*
X139885Y-27422D01*
X140025Y-27470D01*
X140160Y-27501D01*
X140287Y-27527D01*
X140344Y-27531D01*
X140396Y-27540D01*
X140444Y-27544D01*
X140483D01*
X140514Y-27549D01*
X139011D01*
X141812D01*
Y-25910D01*
Y-25954D01*
X140527D01*
Y-26312D01*
X141419D01*
Y-26880D01*
X141366Y-26924D01*
X141305Y-26963D01*
X141240Y-26998D01*
X141178Y-27029D01*
X141126Y-27055D01*
X141078Y-27077D01*
X141060Y-27086D01*
X141051Y-27090D01*
X141043Y-27094D01*
X141038D01*
X140947Y-27125D01*
X140855Y-27151D01*
X140772Y-27169D01*
X140693Y-27177D01*
X140628Y-27186D01*
X140601D01*
X140575Y-27190D01*
X140532D01*
X140422Y-27186D01*
X140317Y-27169D01*
X140221Y-27147D01*
X140134Y-27125D01*
X140064Y-27099D01*
X140033Y-27090D01*
X140012Y-27081D01*
X139990Y-27072D01*
X139977Y-27064D01*
X139968Y-27059D01*
X139963D01*
X139872Y-27003D01*
X139789Y-26941D01*
X139719Y-26876D01*
X139662Y-26810D01*
X139614Y-26749D01*
X139583Y-26701D01*
X139570Y-26683D01*
X139566Y-26670D01*
X139557Y-26662D01*
Y-26657D01*
X139513Y-26548D01*
X139478Y-26434D01*
X139456Y-26321D01*
X139439Y-26212D01*
X139435Y-26163D01*
X139430Y-26120D01*
X139426Y-26076D01*
Y-26041D01*
X139421Y-26015D01*
Y-25993D01*
Y-25980D01*
Y-25975D01*
X139426Y-25853D01*
X139439Y-25744D01*
X139456Y-25639D01*
X139478Y-25547D01*
X139487Y-25508D01*
X139500Y-25473D01*
X139509Y-25442D01*
X139518Y-25416D01*
X139526Y-25394D01*
X139531Y-25381D01*
X139535Y-25372D01*
Y-25368D01*
X139566Y-25307D01*
X139596Y-25250D01*
X139627Y-25198D01*
X139657Y-25154D01*
X139684Y-25119D01*
X139706Y-25088D01*
X139723Y-25071D01*
X139727Y-25067D01*
X139776Y-25019D01*
X139828Y-24975D01*
X139885Y-24940D01*
X139937Y-24905D01*
X139981Y-24883D01*
X140016Y-24861D01*
X140042Y-24852D01*
X140051Y-24848D01*
X140129Y-24817D01*
X140208Y-24796D01*
X140291Y-24782D01*
X140366Y-24769D01*
X140431Y-24765D01*
X140457D01*
X140479Y-24761D01*
X140527D01*
X140610Y-24765D01*
X140689Y-24774D01*
X140759Y-24787D01*
X140820Y-24800D01*
X140872Y-24817D01*
X140912Y-24831D01*
X140934Y-24839D01*
X140942Y-24844D01*
X141008Y-24874D01*
X141065Y-24909D01*
X141117Y-24944D01*
X141156Y-24979D01*
X141187Y-25010D01*
X141213Y-25032D01*
X141226Y-25049D01*
X141231Y-25053D01*
X141270Y-25106D01*
X141301Y-25167D01*
X141331Y-25224D01*
X141357Y-25285D01*
X141375Y-25337D01*
X141388Y-25377D01*
X141392Y-25394D01*
X141397Y-25407D01*
X141401Y-25412D01*
Y-25416D01*
X141764Y-25320D01*
X141733Y-25211D01*
X141694Y-25115D01*
X141655Y-25027D01*
X141620Y-24957D01*
X141585Y-24901D01*
X141559Y-24861D01*
X141541Y-24835D01*
X141532Y-24826D01*
X141471Y-24756D01*
X141405Y-24700D01*
X141336Y-24647D01*
X141270Y-24603D01*
X141209Y-24573D01*
X141161Y-24546D01*
X141143Y-24538D01*
X141130Y-24533D01*
X141121Y-24529D01*
X141117D01*
X141017Y-24494D01*
X140912Y-24468D01*
X140816Y-24446D01*
X140724Y-24433D01*
X140641Y-24424D01*
X140606D01*
X140580Y-24420D01*
D02*
G37*
G36*
X137193D02*
X137153D01*
X137036Y-24424D01*
X136926Y-24437D01*
X136821Y-24459D01*
X136721Y-24485D01*
X136629Y-24520D01*
X136542Y-24555D01*
X136463Y-24595D01*
X136393Y-24634D01*
X136328Y-24673D01*
X136271Y-24713D01*
X136223Y-24747D01*
X136183Y-24782D01*
X136153Y-24809D01*
X136127Y-24831D01*
X136113Y-24844D01*
X136109Y-24848D01*
X136039Y-24931D01*
X135978Y-25019D01*
X135921Y-25115D01*
X135878Y-25211D01*
X135838Y-25311D01*
X135803Y-25407D01*
X135777Y-25504D01*
X135759Y-25595D01*
X135742Y-25683D01*
X135729Y-25766D01*
X135720Y-25840D01*
X135711Y-25901D01*
Y-25954D01*
X135707Y-25993D01*
Y-25989D01*
Y-27549D01*
Y-26028D01*
X135716Y-26177D01*
X135733Y-26312D01*
X135759Y-26443D01*
X135777Y-26500D01*
X135794Y-26557D01*
X135808Y-26605D01*
X135825Y-26649D01*
X135838Y-26688D01*
X135851Y-26723D01*
X135860Y-26749D01*
X135869Y-26766D01*
X135878Y-26780D01*
Y-26784D01*
X135952Y-26911D01*
X136030Y-27020D01*
X136118Y-27116D01*
X136201Y-27195D01*
X136275Y-27260D01*
X136306Y-27286D01*
X136332Y-27304D01*
X136358Y-27321D01*
X136376Y-27335D01*
X136384Y-27339D01*
X136389Y-27343D01*
X136454Y-27378D01*
X136520Y-27409D01*
X136651Y-27461D01*
X136778Y-27496D01*
X136896Y-27523D01*
X136952Y-27531D01*
X137001Y-27536D01*
X137044Y-27544D01*
X137084D01*
X137110Y-27549D01*
X135707D01*
X138600D01*
Y-25993D01*
X138591Y-25827D01*
X138574Y-25674D01*
X138561Y-25604D01*
X138543Y-25534D01*
X138526Y-25473D01*
X138513Y-25416D01*
X138495Y-25364D01*
X138478Y-25316D01*
X138464Y-25276D01*
X138447Y-25241D01*
X138438Y-25215D01*
X138429Y-25198D01*
X138421Y-25185D01*
Y-25180D01*
X138351Y-25053D01*
X138268Y-24940D01*
X138180Y-24844D01*
X138102Y-24765D01*
X138028Y-24704D01*
X137993Y-24678D01*
X137966Y-24656D01*
X137940Y-24643D01*
X137923Y-24630D01*
X137914Y-24625D01*
X137909Y-24621D01*
X137844Y-24586D01*
X137778Y-24555D01*
X137652Y-24503D01*
X137521Y-24468D01*
X137407Y-24446D01*
X137355Y-24437D01*
X137302Y-24429D01*
X137263Y-24424D01*
X137223D01*
X137193Y-24420D01*
D02*
G37*
G36*
X151142Y-24472D02*
X150604D01*
X149879Y-26579D01*
X149840Y-26692D01*
X149809Y-26788D01*
X149778Y-26871D01*
X149757Y-26941D01*
X149739Y-26994D01*
X149726Y-27033D01*
X149722Y-27055D01*
X149717Y-27064D01*
X149700Y-27002D01*
X149678Y-26932D01*
X149652Y-26858D01*
X149630Y-26784D01*
X149608Y-26718D01*
X149591Y-26666D01*
X149582Y-26644D01*
X149577Y-26631D01*
X149573Y-26622D01*
Y-26618D01*
X148856Y-24472D01*
X148979D01*
X148258D01*
Y-27496D01*
X151142D01*
Y-24472D01*
D02*
G37*
G36*
X146711D02*
X146274D01*
X145120Y-27496D01*
X147947D01*
D01*
X146711Y-24472D01*
D02*
G37*
G36*
X143809Y-24472D02*
X142406D01*
Y-27496D01*
X145063Y-27496D01*
X144543Y-26675D01*
X144482Y-26587D01*
X144425Y-26509D01*
X144368Y-26443D01*
X144320Y-26382D01*
X144277Y-26338D01*
X144242Y-26303D01*
X144220Y-26281D01*
X144211Y-26273D01*
X144176Y-26246D01*
X144137Y-26216D01*
X144058Y-26168D01*
X144023Y-26150D01*
X143997Y-26133D01*
X143979Y-26124D01*
X143971Y-26120D01*
X144049Y-26107D01*
X144124Y-26094D01*
X144189Y-26072D01*
X144255Y-26054D01*
X144312Y-26032D01*
X144364Y-26006D01*
X144412Y-25984D01*
X144456Y-25962D01*
X144491Y-25936D01*
X144526Y-25914D01*
X144552Y-25897D01*
X144574Y-25879D01*
X144591Y-25866D01*
X144604Y-25853D01*
X144609Y-25849D01*
X144613Y-25844D01*
X144648Y-25801D01*
X144683Y-25757D01*
X144736Y-25665D01*
X144770Y-25574D01*
X144797Y-25486D01*
X144814Y-25412D01*
X144818Y-25381D01*
Y-25351D01*
X144823Y-25329D01*
Y-25311D01*
Y-25302D01*
Y-25298D01*
X144818Y-25206D01*
X144805Y-25123D01*
X144783Y-25045D01*
X144762Y-24979D01*
X144736Y-24922D01*
X144718Y-24879D01*
X144701Y-24852D01*
X144696Y-24848D01*
Y-24844D01*
X144644Y-24774D01*
X144591Y-24713D01*
X144534Y-24660D01*
X144482Y-24621D01*
X144434Y-24590D01*
X144395Y-24573D01*
X144368Y-24560D01*
X144364Y-24555D01*
X144360D01*
X144320Y-24542D01*
X144272Y-24529D01*
X144176Y-24507D01*
X144071Y-24494D01*
X143975Y-24481D01*
X143883Y-24477D01*
X143844D01*
X143809Y-24472D01*
D02*
G37*
G36*
X134186D02*
X132783D01*
Y-27496D01*
X135441D01*
D01*
X134920Y-26675D01*
X134859Y-26587D01*
X134802Y-26509D01*
X134746Y-26443D01*
X134698Y-26382D01*
X134654Y-26338D01*
X134619Y-26303D01*
X134597Y-26281D01*
X134588Y-26273D01*
X134553Y-26246D01*
X134514Y-26216D01*
X134435Y-26168D01*
X134400Y-26150D01*
X134374Y-26133D01*
X134357Y-26124D01*
X134348Y-26120D01*
X134427Y-26107D01*
X134501Y-26094D01*
X134566Y-26072D01*
X134632Y-26054D01*
X134689Y-26032D01*
X134741Y-26006D01*
X134789Y-25984D01*
X134833Y-25962D01*
X134868Y-25936D01*
X134903Y-25914D01*
X134929Y-25897D01*
X134951Y-25879D01*
X134968Y-25866D01*
X134982Y-25853D01*
X134986Y-25849D01*
X134990Y-25844D01*
X135025Y-25801D01*
X135060Y-25757D01*
X135113Y-25665D01*
X135148Y-25574D01*
X135174Y-25486D01*
X135191Y-25412D01*
X135196Y-25381D01*
Y-25351D01*
X135200Y-25329D01*
Y-25311D01*
Y-25302D01*
Y-25298D01*
X135196Y-25206D01*
X135183Y-25123D01*
X135161Y-25045D01*
X135139Y-24979D01*
X135113Y-24922D01*
X135095Y-24879D01*
X135078Y-24852D01*
X135073Y-24848D01*
Y-24844D01*
X135021Y-24774D01*
X134968Y-24713D01*
X134912Y-24660D01*
X134859Y-24621D01*
X134811Y-24590D01*
X134772Y-24573D01*
X134746Y-24560D01*
X134741Y-24555D01*
X134737D01*
X134698Y-24542D01*
X134650Y-24529D01*
X134553Y-24507D01*
X134449Y-24494D01*
X134352Y-24481D01*
X134261Y-24477D01*
X134221D01*
X134186Y-24472D01*
D02*
G37*
G36*
X131202D02*
X129961D01*
Y-27496D01*
X132268D01*
D01*
X130362D01*
Y-26268D01*
X131136D01*
X131250Y-26264D01*
X131359Y-26255D01*
X131455Y-26242D01*
X131542Y-26225D01*
X131625Y-26207D01*
X131695Y-26185D01*
X131761Y-26159D01*
X131818Y-26133D01*
X131866Y-26111D01*
X131910Y-26085D01*
X131945Y-26063D01*
X131971Y-26041D01*
X131992Y-26028D01*
X132006Y-26015D01*
X132014Y-26006D01*
X132019Y-26002D01*
X132062Y-25949D01*
X132102Y-25897D01*
X132132Y-25844D01*
X132163Y-25788D01*
X132189Y-25731D01*
X132207Y-25678D01*
X132237Y-25578D01*
X132246Y-25530D01*
X132255Y-25486D01*
X132259Y-25447D01*
X132264Y-25416D01*
X132268Y-25386D01*
Y-25351D01*
D01*
X132264Y-25268D01*
X132255Y-25189D01*
X132237Y-25119D01*
X132224Y-25058D01*
X132207Y-25005D01*
X132189Y-24966D01*
X132180Y-24944D01*
X132176Y-24936D01*
X132141Y-24870D01*
X132097Y-24813D01*
X132058Y-24761D01*
X132019Y-24721D01*
X131984Y-24691D01*
X131958Y-24665D01*
X131940Y-24651D01*
X131931Y-24647D01*
X131875Y-24612D01*
X131809Y-24581D01*
X131748Y-24555D01*
X131691Y-24533D01*
X131639Y-24520D01*
X131599Y-24512D01*
X131569Y-24503D01*
X131560D01*
X131494Y-24494D01*
X131420Y-24485D01*
X131341Y-24481D01*
X131267Y-24477D01*
X131202Y-24472D01*
D02*
G37*
%LPD*%
G36*
X141812Y-27549D02*
X140558D01*
X140680Y-27544D01*
X140798Y-27531D01*
X140907Y-27509D01*
X141004Y-27487D01*
X141043Y-27479D01*
X141082Y-27470D01*
X141117Y-27457D01*
X141148Y-27448D01*
X141170Y-27439D01*
X141187Y-27435D01*
X141196Y-27431D01*
X141200D01*
X141318Y-27383D01*
X141427Y-27326D01*
X141532Y-27265D01*
X141624Y-27208D01*
X141663Y-27182D01*
X141703Y-27155D01*
X141733Y-27134D01*
X141760Y-27116D01*
X141781Y-27099D01*
X141799Y-27086D01*
X141808Y-27081D01*
X141812Y-27077D01*
Y-27549D01*
D02*
G37*
G36*
X137263Y-24769D02*
X137368Y-24787D01*
X137459Y-24813D01*
X137538Y-24839D01*
X137604Y-24870D01*
X137630Y-24883D01*
X137652Y-24892D01*
X137673Y-24905D01*
X137687Y-24909D01*
X137691Y-24918D01*
X137695D01*
X137778Y-24979D01*
X137853Y-25049D01*
X137918Y-25119D01*
X137971Y-25189D01*
X138010Y-25250D01*
X138041Y-25302D01*
X138049Y-25320D01*
X138058Y-25333D01*
X138063Y-25342D01*
Y-25346D01*
X138106Y-25451D01*
X138137Y-25565D01*
X138159Y-25670D01*
X138172Y-25770D01*
X138180Y-25818D01*
X138185Y-25857D01*
Y-25897D01*
X138189Y-25927D01*
Y-25954D01*
Y-25971D01*
Y-25984D01*
Y-25989D01*
X138185Y-26094D01*
X138176Y-26194D01*
X138163Y-26290D01*
X138145Y-26378D01*
X138119Y-26456D01*
X138097Y-26531D01*
X138071Y-26600D01*
X138045Y-26662D01*
X138014Y-26714D01*
X137988Y-26762D01*
X137966Y-26801D01*
X137944Y-26832D01*
X137923Y-26858D01*
X137909Y-26880D01*
X137901Y-26889D01*
X137896Y-26893D01*
X137840Y-26950D01*
X137778Y-26998D01*
X137717Y-27037D01*
X137656Y-27077D01*
X137595Y-27107D01*
X137529Y-27129D01*
X137472Y-27151D01*
X137411Y-27169D01*
X137359Y-27182D01*
X137306Y-27190D01*
X137263Y-27199D01*
X137223Y-27204D01*
X137193D01*
X137171Y-27208D01*
X137149D01*
X137066Y-27204D01*
X136987Y-27195D01*
X136917Y-27177D01*
X136848Y-27160D01*
X136782Y-27134D01*
X136721Y-27107D01*
X136664Y-27081D01*
X136612Y-27051D01*
X136568Y-27020D01*
X136529Y-26994D01*
X136494Y-26967D01*
X136463Y-26941D01*
X136441Y-26924D01*
X136424Y-26906D01*
X136415Y-26898D01*
X136411Y-26893D01*
X136358Y-26832D01*
X136314Y-26766D01*
X136275Y-26697D01*
X136240Y-26627D01*
X136214Y-26552D01*
X136188Y-26482D01*
X136153Y-26343D01*
X136144Y-26281D01*
X136135Y-26220D01*
X136127Y-26168D01*
X136122Y-26124D01*
X136118Y-26085D01*
Y-26054D01*
Y-26037D01*
Y-26032D01*
X136122Y-25910D01*
X136131Y-25796D01*
X136144Y-25687D01*
X136166Y-25591D01*
X136188Y-25504D01*
X136214Y-25425D01*
X136245Y-25351D01*
X136271Y-25289D01*
X136301Y-25233D01*
X136328Y-25185D01*
X136354Y-25145D01*
X136376Y-25115D01*
X136398Y-25088D01*
X136411Y-25071D01*
X136419Y-25062D01*
X136424Y-25058D01*
X136480Y-25005D01*
X136542Y-24962D01*
X136603Y-24922D01*
X136668Y-24887D01*
X136730Y-24861D01*
X136791Y-24835D01*
X136904Y-24800D01*
X136957Y-24791D01*
X137005Y-24782D01*
X137044Y-24774D01*
X137084Y-24769D01*
X137114Y-24765D01*
X137153D01*
X137263Y-24769D01*
D02*
G37*
G36*
X138600Y-27549D02*
X137153D01*
X137298Y-27540D01*
X137433Y-27518D01*
X137560Y-27492D01*
X137617Y-27474D01*
X137669Y-27457D01*
X137717Y-27439D01*
X137761Y-27422D01*
X137796Y-27409D01*
X137827Y-27396D01*
X137853Y-27383D01*
X137875Y-27374D01*
X137883Y-27365D01*
X137888D01*
X138010Y-27286D01*
X138115Y-27199D01*
X138202Y-27107D01*
X138277Y-27020D01*
X138338Y-26937D01*
X138360Y-26906D01*
X138377Y-26876D01*
X138395Y-26849D01*
X138403Y-26832D01*
X138412Y-26819D01*
Y-26815D01*
X138447Y-26745D01*
X138473Y-26675D01*
X138521Y-26535D01*
X138556Y-26395D01*
X138578Y-26268D01*
X138583Y-26212D01*
X138591Y-26159D01*
X138596Y-26111D01*
Y-26072D01*
X138600Y-26037D01*
Y-27549D01*
D02*
G37*
G36*
X150757Y-27496D02*
X149875D01*
X150757Y-24966D01*
Y-27496D01*
D02*
G37*
G36*
X149516D02*
X148642D01*
Y-24922D01*
X149516Y-27496D01*
D02*
G37*
G36*
X146514Y-24887D02*
X146549Y-24992D01*
X146584Y-25097D01*
X146619Y-25198D01*
X146636Y-25241D01*
X146650Y-25285D01*
X146663Y-25324D01*
X146676Y-25355D01*
X146685Y-25381D01*
X146693Y-25403D01*
X146698Y-25416D01*
Y-25420D01*
X147012Y-26251D01*
X145990D01*
X146317Y-25368D01*
X146357Y-25259D01*
X146387Y-25154D01*
X146418Y-25058D01*
X146440Y-24970D01*
X146457Y-24896D01*
X146466Y-24866D01*
X146470Y-24835D01*
X146479Y-24817D01*
Y-24800D01*
X146484Y-24791D01*
Y-24787D01*
X146514Y-24887D01*
D02*
G37*
G36*
X147493Y-27496D02*
X145544D01*
X145872Y-26579D01*
X147139D01*
X147493Y-27496D01*
D02*
G37*
G36*
X143879Y-24813D02*
X143979Y-24831D01*
X144067Y-24852D01*
X144132Y-24879D01*
X144189Y-24905D01*
X144224Y-24927D01*
X144246Y-24944D01*
X144255Y-24949D01*
X144307Y-25005D01*
X144346Y-25062D01*
X144373Y-25123D01*
X144395Y-25176D01*
X144403Y-25228D01*
X144408Y-25268D01*
X144412Y-25294D01*
Y-25298D01*
Y-25302D01*
X144408Y-25355D01*
X144399Y-25407D01*
X144386Y-25451D01*
X144373Y-25490D01*
X144355Y-25525D01*
X144342Y-25552D01*
X144333Y-25569D01*
X144329Y-25574D01*
X144299Y-25617D01*
X144259Y-25657D01*
X144220Y-25687D01*
X144181Y-25713D01*
X144146Y-25731D01*
X144119Y-25744D01*
X144102Y-25753D01*
X144093Y-25757D01*
X144032Y-25774D01*
X143962Y-25788D01*
X143892Y-25796D01*
X143822Y-25801D01*
X143761Y-25805D01*
X143709Y-25809D01*
X142808D01*
Y-24809D01*
X143761D01*
X143879Y-24813D01*
D02*
G37*
G36*
X143372Y-26159D02*
X143407D01*
X143438Y-26163D01*
X143459Y-26168D01*
X143477D01*
X143486Y-26172D01*
X143490D01*
X143560Y-26194D01*
X143590Y-26207D01*
X143617Y-26220D01*
X143643Y-26233D01*
X143660Y-26242D01*
X143669Y-26246D01*
X143674Y-26251D01*
X143709Y-26277D01*
X143744Y-26308D01*
X143809Y-26373D01*
X143840Y-26404D01*
X143861Y-26430D01*
X143875Y-26447D01*
X143879Y-26452D01*
X143923Y-26513D01*
X143971Y-26579D01*
X144019Y-26649D01*
X144067Y-26714D01*
X144106Y-26775D01*
X144137Y-26823D01*
X144150Y-26841D01*
X144159Y-26854D01*
X144167Y-26863D01*
Y-26867D01*
X144565Y-27496D01*
X142808Y-27496D01*
Y-26155D01*
X143324D01*
X143372Y-26159D01*
D02*
G37*
G36*
X134256Y-24813D02*
X134357Y-24831D01*
X134444Y-24852D01*
X134510Y-24879D01*
X134566Y-24905D01*
X134601Y-24927D01*
X134623Y-24944D01*
X134632Y-24949D01*
X134685Y-25005D01*
X134724Y-25062D01*
X134750Y-25123D01*
X134772Y-25176D01*
X134781Y-25228D01*
X134785Y-25268D01*
X134789Y-25294D01*
Y-25298D01*
Y-25302D01*
X134785Y-25355D01*
X134776Y-25407D01*
X134763Y-25451D01*
X134750Y-25490D01*
X134732Y-25525D01*
X134719Y-25552D01*
X134711Y-25569D01*
X134706Y-25574D01*
X134676Y-25617D01*
X134636Y-25657D01*
X134597Y-25687D01*
X134558Y-25713D01*
X134523Y-25731D01*
X134497Y-25744D01*
X134479Y-25753D01*
X134470Y-25757D01*
X134409Y-25774D01*
X134339Y-25788D01*
X134269Y-25796D01*
X134199Y-25801D01*
X134138Y-25805D01*
X134086Y-25809D01*
X133186D01*
Y-24809D01*
X134138D01*
X134256Y-24813D01*
D02*
G37*
G36*
X133749Y-26159D02*
X133784D01*
X133815Y-26163D01*
X133837Y-26168D01*
X133854D01*
X133863Y-26172D01*
X133867D01*
X133937Y-26194D01*
X133968Y-26207D01*
X133994Y-26220D01*
X134020Y-26233D01*
X134038Y-26242D01*
X134046Y-26246D01*
X134051Y-26251D01*
X134086Y-26277D01*
X134121Y-26308D01*
X134186Y-26373D01*
X134217Y-26404D01*
X134239Y-26430D01*
X134252Y-26447D01*
X134256Y-26452D01*
X134300Y-26513D01*
X134348Y-26579D01*
X134396Y-26649D01*
X134444Y-26714D01*
X134483Y-26775D01*
X134514Y-26823D01*
X134527Y-26841D01*
X134536Y-26854D01*
X134545Y-26863D01*
Y-26867D01*
X134942Y-27496D01*
X133186D01*
Y-26155D01*
X133701D01*
X133749Y-26159D01*
D02*
G37*
G36*
X131306Y-24835D02*
X131372Y-24839D01*
X131424Y-24844D01*
X131459Y-24852D01*
X131486Y-24857D01*
X131503Y-24861D01*
X131508D01*
X131564Y-24883D01*
X131612Y-24909D01*
X131656Y-24936D01*
X131695Y-24966D01*
X131722Y-24997D01*
X131744Y-25019D01*
X131757Y-25036D01*
X131761Y-25040D01*
X131791Y-25093D01*
X131818Y-25145D01*
X131835Y-25202D01*
X131844Y-25250D01*
X131853Y-25294D01*
X131857Y-25333D01*
Y-25355D01*
Y-25359D01*
Y-25364D01*
X131848Y-25455D01*
X131831Y-25534D01*
X131805Y-25604D01*
X131774Y-25661D01*
X131744Y-25705D01*
X131717Y-25739D01*
X131700Y-25757D01*
X131691Y-25766D01*
X131660Y-25792D01*
X131621Y-25814D01*
X131538Y-25849D01*
X131446Y-25875D01*
X131354Y-25892D01*
X131272Y-25901D01*
X131237Y-25906D01*
X131206D01*
X131175Y-25910D01*
X130362D01*
Y-24831D01*
X131228D01*
X131306Y-24835D01*
D02*
G37*
D10*
X105122Y18836D02*
G03*
X105158Y14873I-1267J-1993D01*
G01*
X110662Y14827D02*
G03*
X110626Y18790I1267J1993D01*
G01*
X79272Y15315D02*
G03*
X77697Y16890I-1575J0D01*
G01*
X77697Y10669D02*
G03*
X79272Y12244I-0J1575D01*
G01*
X67185Y12244D02*
G03*
X68760Y10669I1575J-0D01*
G01*
Y16890D02*
G03*
X67185Y15315I0J-1575D01*
G01*
X100256Y-15315D02*
G03*
X101831Y-16890I1575J0D01*
G01*
X101831Y-10669D02*
G03*
X100256Y-12244I0J-1575D01*
G01*
X112343Y-12244D02*
G03*
X110768Y-10669I-1575J0D01*
G01*
Y-16890D02*
G03*
X112343Y-15315I-0J1575D01*
G01*
X75846Y143347D02*
G03*
X77421Y141772I1575J0D01*
G01*
X77421Y147992D02*
G03*
X75846Y146417I0J-1575D01*
G01*
X87933Y146417D02*
G03*
X86358Y147992I-1575J0D01*
G01*
Y141772D02*
G03*
X87933Y143347I-0J1575D01*
G01*
X34390Y80276D02*
G03*
X32815Y81850I-1575J0D01*
G01*
X32815Y75630D02*
G03*
X34390Y77205I-0J1575D01*
G01*
X22303Y77205D02*
G03*
X23878Y75630I1575J-0D01*
G01*
Y81850D02*
G03*
X22303Y80276I0J-1575D01*
G01*
X29665Y60590D02*
G03*
X28091Y62165I-1575J0D01*
G01*
X28091Y55945D02*
G03*
X29665Y57520I-0J1575D01*
G01*
X17579Y57520D02*
G03*
X19154Y55945I1575J-0D01*
G01*
Y62165D02*
G03*
X17579Y60590I0J-1575D01*
G01*
X84508Y-83819D02*
G03*
X86083Y-85394I1575J0D01*
G01*
X86083Y-79173D02*
G03*
X84508Y-80748I0J-1575D01*
G01*
X96595Y-80748D02*
G03*
X95020Y-79173I-1575J0D01*
G01*
Y-85394D02*
G03*
X96595Y-83819I-0J1575D01*
G01*
X84508Y-90118D02*
G03*
X86083Y-91693I1575J0D01*
G01*
X86083Y-85472D02*
G03*
X84508Y-87047I0J-1575D01*
G01*
X96595Y-87047D02*
G03*
X95020Y-85472I-1575J0D01*
G01*
Y-91693D02*
G03*
X96595Y-90118I-0J1575D01*
G01*
X65098Y-90591D02*
G03*
X63524Y-89016I-1575J0D01*
G01*
X63524Y-95236D02*
G03*
X65098Y-93661I-0J1575D01*
G01*
X53012Y-93661D02*
G03*
X54587Y-95236I1575J-0D01*
G01*
Y-89016D02*
G03*
X53012Y-90591I0J-1575D01*
G01*
X94488Y-76378D02*
Y-68504D01*
X-0Y-76378D02*
X29528D01*
X-0D02*
X-0Y-44882D01*
X-0Y-13386D02*
X29528D01*
X-0D02*
X-0Y-44882D01*
X92520Y-76378D02*
X94488D01*
X92520Y-13386D02*
X94488D01*
Y-21260D02*
Y-13386D01*
X105122Y18836D02*
X105158Y14873D01*
X110626Y18790D02*
X110662Y14827D01*
X97354Y10343D02*
X97869D01*
X94469Y20472D02*
X121240D01*
X118354Y8661D02*
Y10343D01*
Y8661D02*
X121240D01*
X117839Y10343D02*
X118354D01*
X97354Y8661D02*
Y10343D01*
X94469Y8661D02*
X97354D01*
X121240D02*
X121240Y20472D01*
X94469Y8661D02*
Y20472D01*
X107874Y-72008D02*
X112343D01*
X100256D02*
Y-65787D01*
X112343Y-72008D02*
Y-65787D01*
X100256Y-72008D02*
X104724D01*
X107874Y-65787D02*
X112343D01*
X100256D02*
X104724D01*
X36260Y62854D02*
Y67323D01*
Y74941D02*
X42480D01*
X36260Y62854D02*
X42480D01*
X36260Y70473D02*
Y74941D01*
X42480Y62854D02*
Y67323D01*
Y70473D02*
Y74941D01*
X100256Y-26417D02*
X104724D01*
X112343Y-32638D02*
Y-26417D01*
X100256Y-32638D02*
Y-26417D01*
X107874D02*
X112343D01*
X100256Y-32638D02*
X104724D01*
X107874D02*
X112343D01*
X107874Y-40512D02*
X112343D01*
X100256D02*
Y-34291D01*
X112343Y-40512D02*
Y-34291D01*
X100256Y-40512D02*
X104724D01*
X107874Y-34291D02*
X112343D01*
X100256D02*
X104724D01*
X107874Y-24764D02*
X112343D01*
X100256D02*
Y-18543D01*
X112343Y-24764D02*
Y-18543D01*
X100256Y-24764D02*
X104724D01*
X107874Y-18543D02*
X112343D01*
X100256D02*
X104724D01*
X55118Y-87756D02*
X59587D01*
X47500D02*
Y-81535D01*
X59587Y-87756D02*
Y-81535D01*
X47500Y-87756D02*
X51968D01*
X55118Y-81535D02*
X59587D01*
X47500D02*
X51968D01*
X107874Y-64134D02*
X112343D01*
X100256D02*
Y-57913D01*
X112343Y-64134D02*
Y-57913D01*
X100256Y-64134D02*
X104724D01*
X107874Y-57913D02*
X112343D01*
X100256D02*
X104724D01*
X17185Y-81535D02*
X21654D01*
X29272Y-87756D02*
Y-81535D01*
X17185Y-87756D02*
Y-81535D01*
X24803D02*
X29272D01*
X17185Y-87756D02*
X21654D01*
X24803D02*
X29272D01*
X42913D02*
X47382D01*
X35295D02*
Y-81535D01*
X47382Y-87756D02*
Y-81535D01*
X35295Y-87756D02*
X39764D01*
X42913Y-81535D02*
X47382D01*
X35295D02*
X39764D01*
X115551Y-23504D02*
X165551D01*
X162218Y-41837D02*
Y-28504D01*
X160551Y-43504D02*
X162218Y-41837D01*
X158885D02*
X160551Y-43504D01*
X158885Y-41837D02*
Y-28504D01*
X152218Y-41837D02*
Y-28504D01*
X150551Y-43504D02*
X152218Y-41837D01*
X148884D02*
X150551Y-43504D01*
X148884Y-41837D02*
Y-28504D01*
X142218Y-41837D02*
Y-28504D01*
X140551Y-43504D02*
X142218Y-41837D01*
X138885D02*
X140551Y-43504D01*
X138885Y-41837D02*
Y-28504D01*
X132218Y-41837D02*
Y-28504D01*
X130551Y-43504D02*
X132218Y-41837D01*
X128885D02*
X130551Y-43504D01*
X128885Y-41837D02*
Y-28504D01*
X122218Y-41837D02*
Y-28504D01*
X120551Y-43504D02*
X122218Y-41837D01*
X118885D02*
X120551Y-43504D01*
X118885Y-41837D02*
Y-28504D01*
X115551D02*
Y-23504D01*
Y-28504D02*
X165551D01*
Y-23504D01*
X60630Y-101535D02*
X65098D01*
X53012D02*
X57480D01*
X60630Y-95315D02*
X65098D01*
X53012Y-101535D02*
Y-95315D01*
X65098Y-101535D02*
Y-95315D01*
X53012D02*
X57480D01*
X68760Y16890D02*
X71653D01*
X79272Y12244D02*
Y15315D01*
X67185Y12244D02*
Y15315D01*
X74803Y16890D02*
X77697D01*
X74803Y10669D02*
X77697D01*
X68760Y10669D02*
X71653D01*
X107874Y-16890D02*
X110768D01*
X100256Y-15315D02*
Y-12244D01*
X112343Y-15315D02*
Y-12244D01*
X101831Y-16890D02*
X104724D01*
X101831Y-10669D02*
X104724D01*
X107874Y-10669D02*
X110768D01*
X83465Y141772D02*
X86358D01*
X75846Y143347D02*
Y146417D01*
X87933Y143347D02*
Y146417D01*
X77421Y141772D02*
X80315D01*
X77421Y147992D02*
X80315D01*
X83465Y147992D02*
X86358D01*
X23878Y81850D02*
X26772D01*
X34390Y77205D02*
Y80276D01*
X22303Y77205D02*
Y80276D01*
X29921Y81850D02*
X32815D01*
X29921Y75630D02*
X32815D01*
X23878Y75630D02*
X26772D01*
X19154Y62165D02*
X22047D01*
X29665Y57520D02*
Y60590D01*
X17579Y57520D02*
Y60590D01*
X25197Y62165D02*
X28091D01*
X25197Y55945D02*
X28091D01*
X19154Y55945D02*
X22047D01*
X92126Y-85394D02*
X95020D01*
X84508Y-83819D02*
Y-80748D01*
X96595Y-83819D02*
Y-80748D01*
X86083Y-85394D02*
X88976D01*
X86083Y-79173D02*
X88976D01*
X92126Y-79173D02*
X95020D01*
X92126Y-91693D02*
X95020D01*
X84508Y-90118D02*
Y-87047D01*
X96595Y-90118D02*
Y-87047D01*
X86083Y-91693D02*
X88976D01*
X86083Y-85472D02*
X88976D01*
X92126Y-85472D02*
X95020D01*
X54587Y-89016D02*
X57480D01*
X65098Y-93661D02*
Y-90591D01*
X53012Y-93661D02*
Y-90591D01*
X60630Y-89016D02*
X63524D01*
X60630Y-95236D02*
X63524D01*
X54587Y-95236D02*
X57480D01*
D11*
X32776Y62008D02*
G03*
X32776Y62008I-492J0D01*
G01*
X69390Y-85630D02*
G03*
X69390Y-85630I-492J0D01*
G01*
D12*
X312447Y118517D02*
G03*
X312727Y117818I1385J150D01*
G01*
X313982Y117282D02*
G03*
X314681Y117563I-150J1385D01*
G01*
X315217Y118817D02*
G03*
X314952Y119494I-1385J-150D01*
G01*
X313682Y120052D02*
G03*
X312983Y119771I150J-1385D01*
G01*
X312727Y-117818D02*
G03*
X312447Y-118517I1104J-849D01*
G01*
X314681Y-117563D02*
G03*
X313982Y-117282I-849J-1104D01*
G01*
X314952Y-119494D02*
G03*
X315217Y-118817I-1120J827D01*
G01*
X312983Y-119771D02*
G03*
X313682Y-120052I849J1104D01*
G01*
X14173Y-118799D02*
Y-113287D01*
Y-118799D02*
X14173Y-118799D01*
X16535D01*
X48031D02*
X50394D01*
X50394Y-118799D01*
Y-113287D01*
X14173Y-103839D02*
Y-98327D01*
X50394Y-103839D02*
Y-98327D01*
X235138Y129030D02*
X236656Y124360D01*
X232683Y121474D02*
X236656Y124360D01*
X232683Y121474D02*
X237593D01*
X239111Y116804D01*
X240628Y121474D01*
X245539D01*
X241566Y124360D02*
X245539Y121474D01*
X241566Y124360D02*
X243084Y129030D01*
X239111Y126144D02*
X243084Y129030D01*
X235138D02*
X239111Y126144D01*
X308649Y106535D02*
X312727Y117818D01*
X308649Y106535D02*
X313982Y117282D01*
X314681Y117563D02*
X325886Y113517D01*
X315217Y118817D02*
X325886Y113517D01*
X314952Y119494D02*
X318949Y130643D01*
X313682Y120052D02*
X318949Y130643D01*
X301778Y123817D02*
X312447Y118517D01*
X301778Y123817D02*
X312983Y119771D01*
X235138Y-129030D02*
X236656Y-124360D01*
X232683Y-121474D02*
X236656Y-124360D01*
X232683Y-121474D02*
X237593D01*
X239111Y-116804D01*
X240628Y-121474D01*
X245539D01*
X241566Y-124360D02*
X245539Y-121474D01*
X241566Y-124360D02*
X243084Y-129030D01*
X239111Y-126144D02*
X243084Y-129030D01*
X235138D02*
X239111Y-126144D01*
X308649Y-106535D02*
X312727Y-117818D01*
X308649Y-106535D02*
X313982Y-117282D01*
X314681Y-117563D02*
X325886Y-113517D01*
X315217Y-118817D02*
X325886Y-113517D01*
X314952Y-119494D02*
X318949Y-130643D01*
X313682Y-120052D02*
X318949Y-130643D01*
X301778Y-123817D02*
X312447Y-118517D01*
X301778Y-123817D02*
X312983Y-119771D01*
X163012Y-58871D02*
X164530Y-54201D01*
X160557Y-51314D02*
X164530Y-54201D01*
X160557Y-51314D02*
X165467D01*
X166985Y-46644D01*
X168502Y-51314D01*
X173413D01*
X169440Y-54201D02*
X173413Y-51314D01*
X169440Y-54201D02*
X170958Y-58871D01*
X166985Y-55985D02*
X170958Y-58871D01*
X163012D02*
X166985Y-55985D01*
X280707Y48901D02*
X282224Y44231D01*
X278252Y41345D02*
X282224Y44231D01*
X278252Y41345D02*
X283162D01*
X284680Y36674D01*
X286197Y41345D01*
X291108D01*
X287135Y44231D02*
X291108Y41345D01*
X287135Y44231D02*
X288652Y48901D01*
X284680Y46015D02*
X288652Y48901D01*
X280707D02*
X284680Y46015D01*
X280707Y-48901D02*
X282224Y-44231D01*
X278252Y-41345D02*
X282224Y-44231D01*
X278252Y-41345D02*
X283162D01*
X284680Y-36674D01*
X286197Y-41345D01*
X291108D01*
X287135Y-44231D02*
X291108Y-41345D01*
X287135Y-44231D02*
X288652Y-48901D01*
X284680Y-46015D02*
X288652Y-48901D01*
X280707D02*
X284680Y-46015D01*
D13*
X24016Y63386D02*
Y74410D01*
X27953Y63386D02*
Y74410D01*
X24016D02*
X27953D01*
X24016Y63386D02*
X27953D01*
X72835Y-87008D02*
X76772D01*
X72835Y-98032D02*
X76772D01*
X72835D02*
Y-87008D01*
X76772Y-98032D02*
Y-87008D01*
X310304Y127458D02*
X317360Y109876D01*
X305041Y115139D02*
X322623Y122195D01*
X310304Y-127458D02*
X317360Y-109876D01*
X305041Y-115139D02*
X322623Y-122195D01*
X298306Y-181978D02*
X296306D01*
X297306D01*
Y-186977D01*
X296306Y-187976D01*
X295307D01*
X294307Y-186977D01*
X300305Y-181978D02*
Y-187976D01*
X304304D01*
X310302Y-182978D02*
X309302Y-181978D01*
X307303D01*
X306303Y-182978D01*
Y-186977D01*
X307303Y-187976D01*
X309302D01*
X310302Y-186977D01*
X316300Y-181978D02*
X314301D01*
X315300D01*
Y-186977D01*
X314301Y-187976D01*
X313301D01*
X312301Y-186977D01*
X318299Y-181978D02*
Y-187976D01*
X322298D01*
X328296Y-182978D02*
X327296Y-181978D01*
X325297D01*
X324297Y-182978D01*
Y-186977D01*
X325297Y-187976D01*
X327296D01*
X328296Y-186977D01*
X334294Y-181978D02*
X332295D01*
X333295D01*
Y-186977D01*
X332295Y-187976D01*
X331295D01*
X330295Y-186977D01*
X336294Y-181978D02*
Y-187976D01*
X340292D01*
X346290Y-182978D02*
X345291Y-181978D01*
X343291D01*
X342292Y-182978D01*
Y-186977D01*
X343291Y-187976D01*
X345291D01*
X346290Y-186977D01*
X352288Y-181978D02*
X350289D01*
X351289D01*
Y-186977D01*
X350289Y-187976D01*
X349289D01*
X348290Y-186977D01*
X354288Y-181978D02*
Y-187976D01*
X358286D01*
X364284Y-182978D02*
X363285Y-181978D01*
X361285D01*
X360286Y-182978D01*
Y-186977D01*
X361285Y-187976D01*
X363285D01*
X364284Y-186977D01*
D14*
X326869Y57441D02*
X340469Y49269D01*
X322949Y51758D02*
X337292Y43140D01*
X322949Y51758D02*
X323558Y52771D01*
X337292Y43140D02*
X337900Y44153D01*
X200491Y93661D02*
X214091Y85490D01*
X196572Y87979D02*
X210914Y79361D01*
X196572Y87979D02*
X197180Y88991D01*
X210914Y79361D02*
X211522Y80373D01*
X65846Y134606D02*
X79445Y126435D01*
X61926Y128923D02*
X76268Y120306D01*
X61926Y128923D02*
X62534Y129936D01*
X76268Y120306D02*
X76876Y121318D01*
X314649Y30652D02*
X328249Y22480D01*
X317826Y36781D02*
X332169Y28163D01*
X331560Y27151D02*
X332169Y28163D01*
X317218Y35768D02*
X317826Y36781D01*
X182759Y70022D02*
X196359Y61851D01*
X185937Y76151D02*
X200279Y67533D01*
X199671Y66521D02*
X200279Y67533D01*
X185328Y75138D02*
X185937Y76151D01*
X54413Y107424D02*
X68013Y99252D01*
X57590Y113552D02*
X71933Y104935D01*
X71324Y103922D02*
X71933Y104935D01*
X56982Y112540D02*
X57590Y113552D01*
M02*
