G04*
G04 #@! TF.GenerationSoftware,Altium Limited,Altium Designer,20.0.2 (26)*
G04*
G04 Layer_Color=7318015*
%FSLAX25Y25*%
%MOIN*%
G70*
G01*
G75*
%ADD15R,0.03937X0.07874*%
%ADD16R,0.07874X0.03937*%
%ADD17R,0.03150X0.04409*%
%ADD18R,0.03150X0.07087*%
%ADD19R,0.04331X0.02362*%
%ADD20R,0.03661X0.03858*%
%ADD21R,0.03858X0.03661*%
G04:AMPARAMS|DCode=22|XSize=23.62mil|YSize=51.18mil|CornerRadius=0mil|HoleSize=0mil|Usage=FLASHONLY|Rotation=149.000|XOffset=0mil|YOffset=0mil|HoleType=Round|Shape=Rectangle|*
%AMROTATEDRECTD22*
4,1,4,0.02330,0.01585,-0.00306,-0.02802,-0.02330,-0.01585,0.00306,0.02802,0.02330,0.01585,0.0*
%
%ADD22ROTATEDRECTD22*%

G04:AMPARAMS|DCode=23|XSize=29.53mil|YSize=51.18mil|CornerRadius=0mil|HoleSize=0mil|Usage=FLASHONLY|Rotation=149.000|XOffset=0mil|YOffset=0mil|HoleType=Round|Shape=Rectangle|*
%AMROTATEDRECTD23*
4,1,4,0.02584,0.01433,-0.00053,-0.02954,-0.02584,-0.01433,0.00053,0.02954,0.02584,0.01433,0.0*
%
%ADD23ROTATEDRECTD23*%

G04:AMPARAMS|DCode=24|XSize=19.68mil|YSize=51.18mil|CornerRadius=0mil|HoleSize=0mil|Usage=FLASHONLY|Rotation=149.000|XOffset=0mil|YOffset=0mil|HoleType=Round|Shape=Rectangle|*
%AMROTATEDRECTD24*
4,1,4,0.02162,0.01687,-0.00474,-0.02701,-0.02162,-0.01687,0.00474,0.02701,0.02162,0.01687,0.0*
%
%ADD24ROTATEDRECTD24*%

G04:AMPARAMS|DCode=25|XSize=25.59mil|YSize=51.18mil|CornerRadius=0mil|HoleSize=0mil|Usage=FLASHONLY|Rotation=149.000|XOffset=0mil|YOffset=0mil|HoleType=Round|Shape=Rectangle|*
%AMROTATEDRECTD25*
4,1,4,0.02415,0.01535,-0.00221,-0.02853,-0.02415,-0.01535,0.00221,0.02853,0.02415,0.01535,0.0*
%
%ADD25ROTATEDRECTD25*%

%ADD26R,0.02756X0.08661*%
%ADD27R,0.05118X0.08661*%
%ADD28R,0.05787X0.04567*%
%ADD29R,0.02756X0.04921*%
D15*
X33465Y-74410D02*
D03*
X41339D02*
D03*
X49213D02*
D03*
X57087D02*
D03*
X64961D02*
D03*
X72835D02*
D03*
X80709D02*
D03*
X88583D02*
D03*
X88583Y-15354D02*
D03*
X80709D02*
D03*
X72835D02*
D03*
X64961D02*
D03*
X57087D02*
D03*
X49213D02*
D03*
X41339D02*
D03*
X33465D02*
D03*
D16*
X93701Y-64567D02*
D03*
Y-56693D02*
D03*
Y-48819D02*
D03*
Y-40945D02*
D03*
Y-33071D02*
D03*
Y-25197D02*
D03*
D17*
X21457Y-93012D02*
D03*
X26299D02*
D03*
X30315D02*
D03*
X34252D02*
D03*
X38268D02*
D03*
X43110D02*
D03*
D18*
X115354Y9843D02*
D03*
X110354D02*
D03*
X105354D02*
D03*
X100354D02*
D03*
D19*
X31496Y65158D02*
D03*
Y68898D02*
D03*
Y72638D02*
D03*
X20472D02*
D03*
Y68898D02*
D03*
Y65158D02*
D03*
X69291Y-88779D02*
D03*
Y-92520D02*
D03*
Y-96260D02*
D03*
X80315D02*
D03*
Y-88779D02*
D03*
D20*
X109331Y-68898D02*
D03*
X103268D02*
D03*
X103268Y-29528D02*
D03*
X109331D02*
D03*
X109331Y-37402D02*
D03*
X103268D02*
D03*
X109331Y-21654D02*
D03*
X103268D02*
D03*
X56575Y-84646D02*
D03*
X50512D02*
D03*
X109331Y-61024D02*
D03*
X103268D02*
D03*
X20197Y-84646D02*
D03*
X26260D02*
D03*
X44370D02*
D03*
X38307D02*
D03*
X62087Y-98425D02*
D03*
X56024D02*
D03*
X70197Y13780D02*
D03*
X76260D02*
D03*
X109331Y-13780D02*
D03*
X103268D02*
D03*
X84921Y144882D02*
D03*
X78858D02*
D03*
X25315Y78740D02*
D03*
X31378D02*
D03*
X20591Y59055D02*
D03*
X26654D02*
D03*
X93583Y-82284D02*
D03*
X87520D02*
D03*
X93583Y-88583D02*
D03*
X87520D02*
D03*
X56024Y-92126D02*
D03*
X62087D02*
D03*
D21*
X39370Y65866D02*
D03*
Y71929D02*
D03*
D22*
X327751Y52869D02*
D03*
X201373Y89090D02*
D03*
X66727Y130034D02*
D03*
X327367Y27052D02*
D03*
X195478Y66422D02*
D03*
X67131Y103824D02*
D03*
D23*
X331041Y50892D02*
D03*
X204663Y87113D02*
D03*
X70017Y128058D02*
D03*
X324077Y29029D02*
D03*
X192187Y68399D02*
D03*
X63841Y105801D02*
D03*
D24*
X333994Y49118D02*
D03*
X207616Y85338D02*
D03*
X72970Y126283D02*
D03*
X321124Y30803D02*
D03*
X189234Y70173D02*
D03*
X60888Y107575D02*
D03*
D25*
X336778Y47445D02*
D03*
X210400Y83666D02*
D03*
X75754Y124610D02*
D03*
X318340Y32476D02*
D03*
X186450Y71846D02*
D03*
X58104Y109248D02*
D03*
D26*
X70473Y161024D02*
D03*
X76378D02*
D03*
X119685Y-161024D02*
D03*
X323228Y-161024D02*
D03*
X317323D02*
D03*
D27*
X64567Y161024D02*
D03*
X82284D02*
D03*
X125591Y-161024D02*
D03*
X113779D02*
D03*
X125591D02*
D03*
X113779D02*
D03*
X252362Y161024D02*
D03*
X260236D02*
D03*
X329134Y-161024D02*
D03*
X311417D02*
D03*
D28*
X279922Y-7054D02*
D03*
X279922Y7119D02*
D03*
X268110Y7112D02*
D03*
X268110Y-7062D02*
D03*
X82284Y7094D02*
D03*
X64567D02*
D03*
X82284Y-7079D02*
D03*
X64567D02*
D03*
D29*
X274016Y-7062D02*
D03*
X274016Y7112D02*
D03*
X76378Y-7079D02*
D03*
X70473Y-7071D02*
D03*
X76378Y7087D02*
D03*
X70473Y7094D02*
D03*
M02*
